<?xml version="1.0" encoding="UTF-8"?>
<svg xmlns="http://www.w3.org/2000/svg" width="1280" height="586" viewBox="0 0 1280 586">
<defs>
<marker id="arrowhead" markerWidth="8" markerHeight="8" refX="7" refY="4" orient="auto">
<path d="M0,0 L8,4 L0,8 Z" fill="#555"/></marker>
<marker id="arrowhead-blue" markerWidth="8" markerHeight="8" refX="7" refY="4" orient="auto">
<path d="M0,0 L8,4 L0,8 Z" fill="#4477AA"/></marker>
<marker id="arrowhead-orange" markerWidth="8" markerHeight="8" refX="7" refY="4" orient="auto">
<path d="M0,0 L8,4 L0,8 Z" fill="#F58518"/></marker>
</defs>
<style>text { font-family: Segoe UI, Helvetica, Arial, sans-serif; fill: #1a1a1a; }</style>
<rect width="1280" height="586" fill="#ffffff"/>
<line x1="239.7" y1="125.0" x2="640.0" y2="131.6" stroke="#8eb5d6" stroke-width="1.3" opacity="0.85"/>
<line x1="239.7" y1="125.0" x2="640.0" y2="171.2" stroke="#8eb5d6" stroke-width="1.3" opacity="0.85"/>
<line x1="239.7" y1="125.0" x2="640.0" y2="210.8" stroke="#8eb5d6" stroke-width="1.3" opacity="0.85"/>
<line x1="239.7" y1="125.0" x2="640.0" y2="250.4" stroke="#8eb5d6" stroke-width="1.3" opacity="0.85"/>
<line x1="239.7" y1="158.0" x2="640.0" y2="131.6" stroke="#8eb5d6" stroke-width="1.3" opacity="0.85"/>
<line x1="239.7" y1="158.0" x2="640.0" y2="171.2" stroke="#8eb5d6" stroke-width="1.3" opacity="0.85"/>
<line x1="239.7" y1="158.0" x2="640.0" y2="210.8" stroke="#8eb5d6" stroke-width="1.3" opacity="0.85"/>
<line x1="239.7" y1="158.0" x2="640.0" y2="250.4" stroke="#8eb5d6" stroke-width="1.3" opacity="0.85"/>
<line x1="239.7" y1="191.0" x2="640.0" y2="131.6" stroke="#8eb5d6" stroke-width="1.3" opacity="0.85"/>
<line x1="239.7" y1="191.0" x2="640.0" y2="171.2" stroke="#8eb5d6" stroke-width="1.3" opacity="0.85"/>
<line x1="239.7" y1="191.0" x2="640.0" y2="210.8" stroke="#8eb5d6" stroke-width="1.3" opacity="0.85"/>
<line x1="239.7" y1="191.0" x2="640.0" y2="250.4" stroke="#8eb5d6" stroke-width="1.3" opacity="0.85"/>
<line x1="239.7" y1="224.0" x2="640.0" y2="131.6" stroke="#8eb5d6" stroke-width="1.3" opacity="0.85"/>
<line x1="239.7" y1="224.0" x2="640.0" y2="171.2" stroke="#8eb5d6" stroke-width="1.3" opacity="0.85"/>
<line x1="239.7" y1="224.0" x2="640.0" y2="210.8" stroke="#8eb5d6" stroke-width="1.3" opacity="0.85"/>
<line x1="239.7" y1="224.0" x2="640.0" y2="250.4" stroke="#8eb5d6" stroke-width="1.3" opacity="0.85"/>
<line x1="239.7" y1="257.0" x2="640.0" y2="131.6" stroke="#8eb5d6" stroke-width="1.3" opacity="0.85"/>
<line x1="239.7" y1="257.0" x2="640.0" y2="171.2" stroke="#8eb5d6" stroke-width="1.3" opacity="0.85"/>
<line x1="239.7" y1="257.0" x2="640.0" y2="210.8" stroke="#8eb5d6" stroke-width="1.3" opacity="0.85"/>
<line x1="239.7" y1="257.0" x2="640.0" y2="250.4" stroke="#8eb5d6" stroke-width="1.3" opacity="0.85"/>
<line x1="640.0" y1="131.6" x2="951.4" y2="125.0" stroke="#7ec4b8" stroke-width="1.3" opacity="0.85"/>
<line x1="640.0" y1="131.6" x2="951.4" y2="158.0" stroke="#7ec4b8" stroke-width="1.3" opacity="0.85"/>
<line x1="640.0" y1="131.6" x2="951.4" y2="191.0" stroke="#7ec4b8" stroke-width="1.3" opacity="0.85"/>
<line x1="640.0" y1="131.6" x2="951.4" y2="224.0" stroke="#7ec4b8" stroke-width="1.3" opacity="0.85"/>
<line x1="640.0" y1="131.6" x2="951.4" y2="257.0" stroke="#7ec4b8" stroke-width="1.3" opacity="0.85"/>
<line x1="640.0" y1="171.2" x2="951.4" y2="125.0" stroke="#7ec4b8" stroke-width="1.3" opacity="0.85"/>
<line x1="640.0" y1="171.2" x2="951.4" y2="158.0" stroke="#7ec4b8" stroke-width="1.3" opacity="0.85"/>
<line x1="640.0" y1="171.2" x2="951.4" y2="191.0" stroke="#7ec4b8" stroke-width="1.3" opacity="0.85"/>
<line x1="640.0" y1="171.2" x2="951.4" y2="224.0" stroke="#7ec4b8" stroke-width="1.3" opacity="0.85"/>
<line x1="640.0" y1="171.2" x2="951.4" y2="257.0" stroke="#7ec4b8" stroke-width="1.3" opacity="0.85"/>
<line x1="640.0" y1="210.8" x2="951.4" y2="125.0" stroke="#7ec4b8" stroke-width="1.3" opacity="0.85"/>
<line x1="640.0" y1="210.8" x2="951.4" y2="158.0" stroke="#7ec4b8" stroke-width="1.3" opacity="0.85"/>
<line x1="640.0" y1="210.8" x2="951.4" y2="191.0" stroke="#7ec4b8" stroke-width="1.3" opacity="0.85"/>
<line x1="640.0" y1="210.8" x2="951.4" y2="224.0" stroke="#7ec4b8" stroke-width="1.3" opacity="0.85"/>
<line x1="640.0" y1="210.8" x2="951.4" y2="257.0" stroke="#7ec4b8" stroke-width="1.3" opacity="0.85"/>
<line x1="640.0" y1="250.4" x2="951.4" y2="125.0" stroke="#7ec4b8" stroke-width="1.3" opacity="0.85"/>
<line x1="640.0" y1="250.4" x2="951.4" y2="158.0" stroke="#7ec4b8" stroke-width="1.3" opacity="0.85"/>
<line x1="640.0" y1="250.4" x2="951.4" y2="191.0" stroke="#7ec4b8" stroke-width="1.3" opacity="0.85"/>
<line x1="640.0" y1="250.4" x2="951.4" y2="224.0" stroke="#7ec4b8" stroke-width="1.3" opacity="0.85"/>
<line x1="640.0" y1="250.4" x2="951.4" y2="257.0" stroke="#7ec4b8" stroke-width="1.3" opacity="0.85"/>
<path d="M640.0,131.6 Q664.0,151.4 640.0,171.2" fill="none" stroke="#F58518" stroke-width="1.6" opacity="0.9"/>
<path d="M640.0,131.6 Q670.0,171.2 640.0,210.8" fill="none" stroke="#F58518" stroke-width="1.6" opacity="0.9"/>
<path d="M640.0,131.6 Q676.0,191.0 640.0,250.4" fill="none" stroke="#F58518" stroke-width="1.6" opacity="0.9"/>
<path d="M640.0,171.2 Q616.0,151.4 640.0,131.6" fill="none" stroke="#F58518" stroke-width="1.6" opacity="0.9"/>
<path d="M640.0,171.2 Q664.0,191.0 640.0,210.8" fill="none" stroke="#F58518" stroke-width="1.6" opacity="0.9"/>
<path d="M640.0,171.2 Q670.0,210.8 640.0,250.4" fill="none" stroke="#F58518" stroke-width="1.6" opacity="0.9"/>
<path d="M640.0,210.8 Q610.0,171.2 640.0,131.6" fill="none" stroke="#F58518" stroke-width="1.6" opacity="0.9"/>
<path d="M640.0,210.8 Q616.0,191.0 640.0,171.2" fill="none" stroke="#F58518" stroke-width="1.6" opacity="0.9"/>
<path d="M640.0,210.8 Q664.0,230.6 640.0,250.4" fill="none" stroke="#F58518" stroke-width="1.6" opacity="0.9"/>
<path d="M640.0,250.4 Q604.0,191.0 640.0,131.6" fill="none" stroke="#F58518" stroke-width="1.6" opacity="0.9"/>
<path d="M640.0,250.4 Q610.0,210.8 640.0,171.2" fill="none" stroke="#F58518" stroke-width="1.6" opacity="0.9"/>
<path d="M640.0,250.4 Q616.0,230.6 640.0,210.8" fill="none" stroke="#F58518" stroke-width="1.6" opacity="0.9"/>
<circle cx="239.7" cy="125.0" r="15.0" fill="#eef4fb" stroke="#4477AA" stroke-width="1.6"/>
<text x="239.7" y="129.0" text-anchor="middle" font-family="ui-monospace, Consolas, 'Courier New', monospace" font-size="11" fill="#1a1a1a">a</text>
<circle cx="239.7" cy="158.0" r="15.0" fill="#eef4fb" stroke="#4477AA" stroke-width="1.6"/>
<text x="239.7" y="162.0" text-anchor="middle" font-family="ui-monospace, Consolas, 'Courier New', monospace" font-size="11" fill="#1a1a1a">c</text>
<circle cx="239.7" cy="191.0" r="15.0" fill="#eef4fb" stroke="#4477AA" stroke-width="1.6"/>
<text x="239.7" y="195.0" text-anchor="middle" font-family="ui-monospace, Consolas, 'Courier New', monospace" font-size="11" fill="#1a1a1a">h</text>
<circle cx="239.7" cy="224.0" r="15.0" fill="#cce0f5" stroke="#225588" stroke-width="2.0"/>
<text x="239.7" y="228.0" text-anchor="middle" font-family="ui-monospace, Consolas, 'Courier New', monospace" font-size="11" fill="#1a1a1a">t</text>
<circle cx="239.7" cy="257.0" r="15.0" fill="#eef4fb" stroke="#4477AA" stroke-width="1.6"/>
<text x="239.7" y="261.0" text-anchor="middle" font-family="ui-monospace, Consolas, 'Courier New', monospace" font-size="11" fill="#1a1a1a">m</text>
<circle cx="640.0" cy="131.6" r="15.0" fill="#fff3e6" stroke="#F58518" stroke-width="1.6"/>
<text x="640.0" y="135.6" text-anchor="middle" font-family="ui-monospace, Consolas, 'Courier New', monospace" font-size="11" fill="#1a1a1a">h0</text>
<circle cx="640.0" cy="171.2" r="15.0" fill="#fff3e6" stroke="#F58518" stroke-width="1.6"/>
<text x="640.0" y="175.2" text-anchor="middle" font-family="ui-monospace, Consolas, 'Courier New', monospace" font-size="11" fill="#1a1a1a">h1</text>
<circle cx="640.0" cy="210.8" r="15.0" fill="#fff3e6" stroke="#F58518" stroke-width="1.6"/>
<text x="640.0" y="214.8" text-anchor="middle" font-family="ui-monospace, Consolas, 'Courier New', monospace" font-size="11" fill="#1a1a1a">h2</text>
<circle cx="640.0" cy="250.4" r="15.0" fill="#fff3e6" stroke="#F58518" stroke-width="1.6"/>
<text x="640.0" y="254.4" text-anchor="middle" font-family="ui-monospace, Consolas, 'Courier New', monospace" font-size="11" fill="#1a1a1a">h3</text>
<circle cx="951.4" cy="125.0" r="15.0" fill="#e8f6f4" stroke="#2a9d8f" stroke-width="1.6"/>
<text x="951.4" y="129.0" text-anchor="middle" font-family="ui-monospace, Consolas, 'Courier New', monospace" font-size="11" fill="#1a1a1a">a</text>
<circle cx="951.4" cy="158.0" r="15.0" fill="#e8f6f4" stroke="#2a9d8f" stroke-width="1.6"/>
<text x="951.4" y="162.0" text-anchor="middle" font-family="ui-monospace, Consolas, 'Courier New', monospace" font-size="11" fill="#1a1a1a">c</text>
<circle cx="951.4" cy="191.0" r="15.0" fill="#e8f6f4" stroke="#2a9d8f" stroke-width="1.6"/>
<text x="951.4" y="195.0" text-anchor="middle" font-family="ui-monospace, Consolas, 'Courier New', monospace" font-size="11" fill="#1a1a1a">h</text>
<circle cx="951.4" cy="224.0" r="15.0" fill="#e8f6f4" stroke="#2a9d8f" stroke-width="1.6"/>
<text x="951.4" y="228.0" text-anchor="middle" font-family="ui-monospace, Consolas, 'Courier New', monospace" font-size="11" fill="#1a1a1a">t</text>
<circle cx="951.4" cy="257.0" r="15.0" fill="#e8f6f4" stroke="#2a9d8f" stroke-width="1.6"/>
<text x="951.4" y="261.0" text-anchor="middle" font-family="ui-monospace, Consolas, 'Courier New', monospace" font-size="11" fill="#1a1a1a">m</text>
<text x="239.7" y="74" text-anchor="middle" font-size="13" fill="#4477AA">input x<tspan baseline-shift="sub" font-size="10">t</tspan></text>
<text x="640.0" y="74" text-anchor="middle" font-size="13" fill="#F58518">hidden h<tspan baseline-shift="sub" font-size="10">t</tspan></text>
<text x="951.4" y="74" text-anchor="middle" font-size="13" fill="#2a9d8f">softmax</text>
<text x="440" y="98" text-anchor="middle" font-size="13" font-weight="600"><tspan fill="#4477AA">W</tspan><tspan baseline-shift="sub" font-size="10" fill="#4477AA">xh</tspan></text>
<text x="688" y="191" text-anchor="start" font-size="13" font-weight="600"><tspan fill="#F58518">W</tspan><tspan baseline-shift="sub" font-size="10" fill="#F58518">hh</tspan></text>
<text x="796" y="98" text-anchor="middle" font-size="13" font-weight="600"><tspan fill="#2a9d8f">W</tspan><tspan baseline-shift="sub" font-size="10" fill="#2a9d8f">yh</tspan></text>
<text x="640" y="318" text-anchor="middle" font-size="13" fill="#666">h<tspan baseline-shift="sub" font-size="10">t</tspan> = tanh(<tspan fill="#4477AA">W</tspan><tspan baseline-shift="sub" font-size="10" fill="#4477AA">xh</tspan> x<tspan baseline-shift="sub" font-size="10">t</tspan> + <tspan fill="#F58518">W</tspan><tspan baseline-shift="sub" font-size="10" fill="#F58518">hh</tspan> h<tspan baseline-shift="sub" font-size="10">t-1</tspan>) · predict next char · cross-entropy loss</text>
<line x1="84" y1="346" x2="1196" y2="346" stroke="#ddd8cc" stroke-width="1"/>
<rect x="84.0" y="370.0" width="26.0" height="32.0" rx="4" fill="#ffffff" stroke="#ddd8cc" stroke-width="1"/>
<text x="97.0" y="391.8" text-anchor="middle" font-family="ui-monospace, Consolas, 'Courier New', monospace" font-size="16" fill="#4477AA">m</text>
<rect x="114.0" y="370.0" width="26.0" height="32.0" rx="4" fill="#ffffff" stroke="#ddd8cc" stroke-width="1"/>
<text x="127.0" y="391.8" text-anchor="middle" font-family="ui-monospace, Consolas, 'Courier New', monospace" font-size="16" fill="#4477AA">a</text>
<rect x="144.0" y="370.0" width="26.0" height="32.0" rx="4" fill="#ffffff" stroke="#ddd8cc" stroke-width="1"/>
<text x="157.0" y="391.8" text-anchor="middle" font-family="ui-monospace, Consolas, 'Courier New', monospace" font-size="16" fill="#4477AA">t</text>
<rect x="174.0" y="370.0" width="26.0" height="32.0" rx="4" fill="#ffffff" stroke="#ddd8cc" stroke-width="1"/>
<text x="187.0" y="391.8" text-anchor="middle" font-family="ui-monospace, Consolas, 'Courier New', monospace" font-size="16" fill="#4477AA">a</text>
<rect x="204.0" y="370.0" width="26.0" height="32.0" rx="4" fill="#ffffff" stroke="#ddd8cc" stroke-width="1"/>
<text x="217.0" y="391.8" text-anchor="middle" font-family="ui-monospace, Consolas, 'Courier New', monospace" font-size="16" fill="#4477AA">t</text>
<rect x="234.0" y="370.0" width="26.0" height="32.0" rx="4" fill="#ffffff" stroke="#ddd8cc" stroke-width="1"/>
<text x="247.0" y="391.8" text-anchor="middle" font-family="ui-monospace, Consolas, 'Courier New', monospace" font-size="16" fill="#4477AA">e</text>
<rect x="264.0" y="370.0" width="26.0" height="32.0" rx="4" fill="#ffffff" stroke="#ddd8cc" stroke-width="1"/>
<text x="277.0" y="391.8" text-anchor="middle" font-family="ui-monospace, Consolas, 'Courier New', monospace" font-size="16" fill="#4477AA">a</text>
<rect x="294.0" y="370.0" width="26.0" height="32.0" rx="4" fill="#ffffff" stroke="#ddd8cc" stroke-width="1"/>
<text x="307.0" y="391.8" text-anchor="middle" font-family="ui-monospace, Consolas, 'Courier New', monospace" font-size="16" fill="#4477AA">t</text>
<rect x="324.0" y="370.0" width="26.0" height="32.0" rx="4" fill="#ffffff" stroke="#ddd8cc" stroke-width="1"/>
<text x="337.0" y="391.8" text-anchor="middle" font-family="ui-monospace, Consolas, 'Courier New', monospace" font-size="16" fill="#4477AA">e</text>
<rect x="354.0" y="370.0" width="26.0" height="32.0" rx="4" fill="#ffffff" stroke="#ddd8cc" stroke-width="1"/>
<text x="367.0" y="391.8" text-anchor="middle" font-family="ui-monospace, Consolas, 'Courier New', monospace" font-size="16" fill="#4477AA">m</text>
<rect x="384.0" y="370.0" width="26.0" height="32.0" rx="4" fill="#ffffff" stroke="#ddd8cc" stroke-width="1"/>
<text x="397.0" y="391.8" text-anchor="middle" font-family="ui-monospace, Consolas, 'Courier New', monospace" font-size="16" fill="#4477AA">a</text>
<rect x="414.0" y="370.0" width="26.0" height="32.0" rx="4" fill="#ffffff" stroke="#ddd8cc" stroke-width="1"/>
<text x="427.0" y="391.8" text-anchor="middle" font-family="ui-monospace, Consolas, 'Courier New', monospace" font-size="16" fill="#4477AA">t</text>
<rect x="444.0" y="370.0" width="26.0" height="32.0" rx="4" fill="#ffffff" stroke="#ddd8cc" stroke-width="1"/>
<text x="457.0" y="391.8" text-anchor="middle" font-family="ui-monospace, Consolas, 'Courier New', monospace" font-size="16" fill="#4477AA">n</text>
<rect x="474.0" y="370.0" width="26.0" height="32.0" rx="4" fill="#ffffff" stroke="#ddd8cc" stroke-width="1"/>
<text x="487.0" y="391.8" text-anchor="middle" font-family="ui-monospace, Consolas, 'Courier New', monospace" font-size="16" fill="#4477AA">e</text>
<rect x="504.0" y="370.0" width="26.0" height="32.0" rx="4" fill="#ffffff" stroke="#ddd8cc" stroke-width="1"/>
<text x="517.0" y="391.8" text-anchor="middle" font-family="ui-monospace, Consolas, 'Courier New', monospace" font-size="16" fill="#4477AA">t</text>
<rect x="534.0" y="370.0" width="26.0" height="32.0" rx="4" fill="#ffffff" stroke="#ddd8cc" stroke-width="1"/>
<text x="547.0" y="391.8" text-anchor="middle" font-family="ui-monospace, Consolas, 'Courier New', monospace" font-size="16" fill="#4477AA">p</text>
<rect x="564.0" y="370.0" width="26.0" height="32.0" rx="4" fill="#ffffff" stroke="#ddd8cc" stroke-width="1"/>
<text x="577.0" y="391.8" text-anchor="middle" font-family="ui-monospace, Consolas, 'Courier New', monospace" font-size="16" fill="#4477AA">e</text>
<rect x="594.0" y="370.0" width="26.0" height="32.0" rx="4" fill="#ffffff" stroke="#ddd8cc" stroke-width="1"/>
<text x="607.0" y="391.8" text-anchor="middle" font-family="ui-monospace, Consolas, 'Courier New', monospace" font-size="16" fill="#4477AA">t</text>
<rect x="624.0" y="370.0" width="26.0" height="32.0" rx="4" fill="#ffffff" stroke="#ddd8cc" stroke-width="1"/>
<text x="637.0" y="391.8" text-anchor="middle" font-family="ui-monospace, Consolas, 'Courier New', monospace" font-size="16" fill="#4477AA">n</text>
<rect x="654.0" y="370.0" width="26.0" height="32.0" rx="4" fill="#ffffff" stroke="#ddd8cc" stroke-width="1"/>
<text x="667.0" y="391.8" text-anchor="middle" font-family="ui-monospace, Consolas, 'Courier New', monospace" font-size="16" fill="#4477AA">e</text>
<rect x="684.0" y="370.0" width="26.0" height="32.0" rx="4" fill="#ffffff" stroke="#ddd8cc" stroke-width="1"/>
<text x="697.0" y="391.8" text-anchor="middle" font-family="ui-monospace, Consolas, 'Courier New', monospace" font-size="16" fill="#4477AA">t</text>
<rect x="714.0" y="370.0" width="26.0" height="32.0" rx="4" fill="#ffffff" stroke="#ddd8cc" stroke-width="1"/>
<text x="727.0" y="391.8" text-anchor="middle" font-family="ui-monospace, Consolas, 'Courier New', monospace" font-size="16" fill="#4477AA">e</text>
<rect x="744.0" y="370.0" width="26.0" height="32.0" rx="4" fill="#ffffff" stroke="#ddd8cc" stroke-width="1"/>
<text x="757.0" y="391.8" text-anchor="middle" font-family="ui-monospace, Consolas, 'Courier New', monospace" font-size="16" fill="#4477AA">a</text>
<rect x="774.0" y="370.0" width="26.0" height="32.0" rx="4" fill="#ffffff" stroke="#ddd8cc" stroke-width="1"/>
<text x="787.0" y="391.8" text-anchor="middle" font-family="ui-monospace, Consolas, 'Courier New', monospace" font-size="16" fill="#4477AA">t</text>
<rect x="199.0" y="365.0" width="246.0" height="42.0" rx="6" fill="none" stroke="#F58518" stroke-width="2" stroke-dasharray="6 3"/>
<rect x="84" y="426" width="32" height="38" rx="5" fill="#ffffff" stroke="#4477AA" stroke-width="1.5"/>
<text x="100.0" y="453" text-anchor="middle" font-family="ui-monospace, Consolas, 'Courier New', monospace" font-size="17" fill="#4477AA">t</text>
<line x1="100.0" y1="464.0" x2="100.0" y2="482.0" stroke="#555" stroke-width="1.5" marker-end="url(#arrowhead)"/>
<rect x="122" y="426" width="32" height="38" rx="5" fill="#ffffff" stroke="#4477AA" stroke-width="1.5"/>
<text x="138.0" y="453" text-anchor="middle" font-family="ui-monospace, Consolas, 'Courier New', monospace" font-size="17" fill="#4477AA">e</text>
<line x1="138.0" y1="464.0" x2="138.0" y2="482.0" stroke="#555" stroke-width="1.5" marker-end="url(#arrowhead)"/>
<rect x="160" y="426" width="32" height="38" rx="5" fill="#ffffff" stroke="#4477AA" stroke-width="1.5"/>
<text x="176.0" y="453" text-anchor="middle" font-family="ui-monospace, Consolas, 'Courier New', monospace" font-size="17" fill="#4477AA">a</text>
<line x1="176.0" y1="464.0" x2="176.0" y2="482.0" stroke="#555" stroke-width="1.5" marker-end="url(#arrowhead)"/>
<rect x="198" y="426" width="32" height="38" rx="5" fill="#ffffff" stroke="#4477AA" stroke-width="1.5"/>
<text x="214.0" y="453" text-anchor="middle" font-family="ui-monospace, Consolas, 'Courier New', monospace" font-size="17" fill="#4477AA">t</text>
<line x1="214.0" y1="464.0" x2="214.0" y2="482.0" stroke="#555" stroke-width="1.5" marker-end="url(#arrowhead)"/>
<rect x="236" y="426" width="32" height="38" rx="5" fill="#ffffff" stroke="#4477AA" stroke-width="1.5"/>
<text x="252.0" y="453" text-anchor="middle" font-family="ui-monospace, Consolas, 'Courier New', monospace" font-size="17" fill="#4477AA">e</text>
<line x1="252.0" y1="464.0" x2="252.0" y2="482.0" stroke="#555" stroke-width="1.5" marker-end="url(#arrowhead)"/>
<rect x="274" y="426" width="32" height="38" rx="5" fill="#ffffff" stroke="#4477AA" stroke-width="1.5"/>
<text x="290.0" y="453" text-anchor="middle" font-family="ui-monospace, Consolas, 'Courier New', monospace" font-size="17" fill="#4477AA">m</text>
<line x1="290.0" y1="464.0" x2="290.0" y2="482.0" stroke="#555" stroke-width="1.5" marker-end="url(#arrowhead)"/>
<rect x="312" y="426" width="32" height="38" rx="5" fill="#ffffff" stroke="#4477AA" stroke-width="1.5"/>
<text x="328.0" y="453" text-anchor="middle" font-family="ui-monospace, Consolas, 'Courier New', monospace" font-size="17" fill="#4477AA">a</text>
<line x1="328.0" y1="464.0" x2="328.0" y2="482.0" stroke="#555" stroke-width="1.5" marker-end="url(#arrowhead)"/>
<rect x="350" y="426" width="32" height="38" rx="5" fill="#ffffff" stroke="#4477AA" stroke-width="1.5"/>
<text x="366.0" y="453" text-anchor="middle" font-family="ui-monospace, Consolas, 'Courier New', monospace" font-size="17" fill="#4477AA">t</text>
<line x1="366.0" y1="464.0" x2="366.0" y2="482.0" stroke="#555" stroke-width="1.5" marker-end="url(#arrowhead)"/>
<rect x="84" y="492" width="32" height="38" rx="5" fill="#ffffff" stroke="#2a9d8f" stroke-width="1.5"/>
<text x="100.0" y="519" text-anchor="middle" font-family="ui-monospace, Consolas, 'Courier New', monospace" font-size="17" fill="#2a9d8f">e</text>
<rect x="122" y="492" width="32" height="38" rx="5" fill="#ffffff" stroke="#2a9d8f" stroke-width="1.5"/>
<text x="138.0" y="519" text-anchor="middle" font-family="ui-monospace, Consolas, 'Courier New', monospace" font-size="17" fill="#2a9d8f">a</text>
<rect x="160" y="492" width="32" height="38" rx="5" fill="#ffffff" stroke="#2a9d8f" stroke-width="1.5"/>
<text x="176.0" y="519" text-anchor="middle" font-family="ui-monospace, Consolas, 'Courier New', monospace" font-size="17" fill="#2a9d8f">t</text>
<rect x="198" y="492" width="32" height="38" rx="5" fill="#ffffff" stroke="#2a9d8f" stroke-width="1.5"/>
<text x="214.0" y="519" text-anchor="middle" font-family="ui-monospace, Consolas, 'Courier New', monospace" font-size="17" fill="#2a9d8f">e</text>
<rect x="236" y="492" width="32" height="38" rx="5" fill="#ffffff" stroke="#2a9d8f" stroke-width="1.5"/>
<text x="252.0" y="519" text-anchor="middle" font-family="ui-monospace, Consolas, 'Courier New', monospace" font-size="17" fill="#2a9d8f">m</text>
<rect x="274" y="492" width="32" height="38" rx="5" fill="#ffffff" stroke="#2a9d8f" stroke-width="1.5"/>
<text x="290.0" y="519" text-anchor="middle" font-family="ui-monospace, Consolas, 'Courier New', monospace" font-size="17" fill="#2a9d8f">a</text>
<rect x="312" y="492" width="32" height="38" rx="5" fill="#ffffff" stroke="#2a9d8f" stroke-width="1.5"/>
<text x="328.0" y="519" text-anchor="middle" font-family="ui-monospace, Consolas, 'Courier New', monospace" font-size="17" fill="#2a9d8f">t</text>
<rect x="350" y="492" width="32" height="38" rx="5" fill="#ffffff" stroke="#2a9d8f" stroke-width="1.5"/>
<text x="366.0" y="519" text-anchor="middle" font-family="ui-monospace, Consolas, 'Courier New', monospace" font-size="17" fill="#2a9d8f">…</text>
</svg>