<?xml version="1.0" encoding="UTF-8"?>
<svg xmlns="http://www.w3.org/2000/svg" width="1280" height="792" viewBox="0 0 1280 792">
<defs>
<marker id="arrowhead" markerWidth="8" markerHeight="8" refX="7" refY="4" orient="auto">
<path d="M0,0 L8,4 L0,8 Z" fill="#555"/></marker>
<marker id="arrowhead-blue" markerWidth="8" markerHeight="8" refX="7" refY="4" orient="auto">
<path d="M0,0 L8,4 L0,8 Z" fill="#4477AA"/></marker>
<marker id="arrowhead-orange" markerWidth="8" markerHeight="8" refX="7" refY="4" orient="auto">
<path d="M0,0 L8,4 L0,8 Z" fill="#F58518"/></marker>
</defs>
<style>text { font-family: Segoe UI, Helvetica, Arial, sans-serif; fill: #1a1a1a; }</style>
<rect width="1280" height="792" fill="#f4f1ea"/>
<text x="56" y="44" font-size="26" font-weight="700" fill="#1a1a1a">Train the RNN (BPTT)</text>
<text x="56" y="80" font-size="15" fill="#666">Feed characters one at a time · hidden state carries forward · predict next character</text>
<rect x="56" y="130" width="1168" height="606" rx="12" fill="#ffffff" stroke="#ccc8bc" stroke-width="1.5"/>
<rect x="84" y="150" width="1112" height="300" rx="10" fill="#faf8f4" stroke="#4477AA" stroke-width="2"/>
<text x="100" y="174" font-size="16" font-weight="600" fill="#1a1a1a">Character-level RNN (one timestep)</text>
<line x1="239.7" y1="243.0" x2="640.0" y2="249.2" stroke="#8eb5d6" stroke-width="1.3" opacity="0.85"/>
<line x1="239.7" y1="243.0" x2="640.0" y2="286.4" stroke="#8eb5d6" stroke-width="1.3" opacity="0.85"/>
<line x1="239.7" y1="243.0" x2="640.0" y2="323.6" stroke="#8eb5d6" stroke-width="1.3" opacity="0.85"/>
<line x1="239.7" y1="243.0" x2="640.0" y2="360.8" stroke="#8eb5d6" stroke-width="1.3" opacity="0.85"/>
<line x1="239.7" y1="274.0" x2="640.0" y2="249.2" stroke="#8eb5d6" stroke-width="1.3" opacity="0.85"/>
<line x1="239.7" y1="274.0" x2="640.0" y2="286.4" stroke="#8eb5d6" stroke-width="1.3" opacity="0.85"/>
<line x1="239.7" y1="274.0" x2="640.0" y2="323.6" stroke="#8eb5d6" stroke-width="1.3" opacity="0.85"/>
<line x1="239.7" y1="274.0" x2="640.0" y2="360.8" stroke="#8eb5d6" stroke-width="1.3" opacity="0.85"/>
<line x1="239.7" y1="305.0" x2="640.0" y2="249.2" stroke="#8eb5d6" stroke-width="1.3" opacity="0.85"/>
<line x1="239.7" y1="305.0" x2="640.0" y2="286.4" stroke="#8eb5d6" stroke-width="1.3" opacity="0.85"/>
<line x1="239.7" y1="305.0" x2="640.0" y2="323.6" stroke="#8eb5d6" stroke-width="1.3" opacity="0.85"/>
<line x1="239.7" y1="305.0" x2="640.0" y2="360.8" stroke="#8eb5d6" stroke-width="1.3" opacity="0.85"/>
<line x1="239.7" y1="336.0" x2="640.0" y2="249.2" stroke="#8eb5d6" stroke-width="1.3" opacity="0.85"/>
<line x1="239.7" y1="336.0" x2="640.0" y2="286.4" stroke="#8eb5d6" stroke-width="1.3" opacity="0.85"/>
<line x1="239.7" y1="336.0" x2="640.0" y2="323.6" stroke="#8eb5d6" stroke-width="1.3" opacity="0.85"/>
<line x1="239.7" y1="336.0" x2="640.0" y2="360.8" stroke="#8eb5d6" stroke-width="1.3" opacity="0.85"/>
<line x1="239.7" y1="367.0" x2="640.0" y2="249.2" stroke="#8eb5d6" stroke-width="1.3" opacity="0.85"/>
<line x1="239.7" y1="367.0" x2="640.0" y2="286.4" stroke="#8eb5d6" stroke-width="1.3" opacity="0.85"/>
<line x1="239.7" y1="367.0" x2="640.0" y2="323.6" stroke="#8eb5d6" stroke-width="1.3" opacity="0.85"/>
<line x1="239.7" y1="367.0" x2="640.0" y2="360.8" stroke="#8eb5d6" stroke-width="1.3" opacity="0.85"/>
<line x1="640.0" y1="249.2" x2="951.4" y2="243.0" stroke="#7ec4b8" stroke-width="1.3" opacity="0.85"/>
<line x1="640.0" y1="249.2" x2="951.4" y2="274.0" stroke="#7ec4b8" stroke-width="1.3" opacity="0.85"/>
<line x1="640.0" y1="249.2" x2="951.4" y2="305.0" stroke="#7ec4b8" stroke-width="1.3" opacity="0.85"/>
<line x1="640.0" y1="249.2" x2="951.4" y2="336.0" stroke="#7ec4b8" stroke-width="1.3" opacity="0.85"/>
<line x1="640.0" y1="249.2" x2="951.4" y2="367.0" stroke="#7ec4b8" stroke-width="1.3" opacity="0.85"/>
<line x1="640.0" y1="286.4" x2="951.4" y2="243.0" stroke="#7ec4b8" stroke-width="1.3" opacity="0.85"/>
<line x1="640.0" y1="286.4" x2="951.4" y2="274.0" stroke="#7ec4b8" stroke-width="1.3" opacity="0.85"/>
<line x1="640.0" y1="286.4" x2="951.4" y2="305.0" stroke="#7ec4b8" stroke-width="1.3" opacity="0.85"/>
<line x1="640.0" y1="286.4" x2="951.4" y2="336.0" stroke="#7ec4b8" stroke-width="1.3" opacity="0.85"/>
<line x1="640.0" y1="286.4" x2="951.4" y2="367.0" stroke="#7ec4b8" stroke-width="1.3" opacity="0.85"/>
<line x1="640.0" y1="323.6" x2="951.4" y2="243.0" stroke="#7ec4b8" stroke-width="1.3" opacity="0.85"/>
<line x1="640.0" y1="323.6" x2="951.4" y2="274.0" stroke="#7ec4b8" stroke-width="1.3" opacity="0.85"/>
<line x1="640.0" y1="323.6" x2="951.4" y2="305.0" stroke="#7ec4b8" stroke-width="1.3" opacity="0.85"/>
<line x1="640.0" y1="323.6" x2="951.4" y2="336.0" stroke="#7ec4b8" stroke-width="1.3" opacity="0.85"/>
<line x1="640.0" y1="323.6" x2="951.4" y2="367.0" stroke="#7ec4b8" stroke-width="1.3" opacity="0.85"/>
<line x1="640.0" y1="360.8" x2="951.4" y2="243.0" stroke="#7ec4b8" stroke-width="1.3" opacity="0.85"/>
<line x1="640.0" y1="360.8" x2="951.4" y2="274.0" stroke="#7ec4b8" stroke-width="1.3" opacity="0.85"/>
<line x1="640.0" y1="360.8" x2="951.4" y2="305.0" stroke="#7ec4b8" stroke-width="1.3" opacity="0.85"/>
<line x1="640.0" y1="360.8" x2="951.4" y2="336.0" stroke="#7ec4b8" stroke-width="1.3" opacity="0.85"/>
<line x1="640.0" y1="360.8" x2="951.4" y2="367.0" stroke="#7ec4b8" stroke-width="1.3" opacity="0.85"/>
<path d="M640.0,249.2 Q664.0,267.8 640.0,286.4" fill="none" stroke="#F58518" stroke-width="1.6" opacity="0.9"/>
<path d="M640.0,249.2 Q670.0,286.4 640.0,323.6" fill="none" stroke="#F58518" stroke-width="1.6" opacity="0.9"/>
<path d="M640.0,249.2 Q676.0,305.0 640.0,360.8" fill="none" stroke="#F58518" stroke-width="1.6" opacity="0.9"/>
<path d="M640.0,286.4 Q616.0,267.8 640.0,249.2" fill="none" stroke="#F58518" stroke-width="1.6" opacity="0.9"/>
<path d="M640.0,286.4 Q664.0,305.0 640.0,323.6" fill="none" stroke="#F58518" stroke-width="1.6" opacity="0.9"/>
<path d="M640.0,286.4 Q670.0,323.6 640.0,360.8" fill="none" stroke="#F58518" stroke-width="1.6" opacity="0.9"/>
<path d="M640.0,323.6 Q610.0,286.4 640.0,249.2" fill="none" stroke="#F58518" stroke-width="1.6" opacity="0.9"/>
<path d="M640.0,323.6 Q616.0,305.0 640.0,286.4" fill="none" stroke="#F58518" stroke-width="1.6" opacity="0.9"/>
<path d="M640.0,323.6 Q664.0,342.2 640.0,360.8" fill="none" stroke="#F58518" stroke-width="1.6" opacity="0.9"/>
<path d="M640.0,360.8 Q604.0,305.0 640.0,249.2" fill="none" stroke="#F58518" stroke-width="1.6" opacity="0.9"/>
<path d="M640.0,360.8 Q610.0,323.6 640.0,286.4" fill="none" stroke="#F58518" stroke-width="1.6" opacity="0.9"/>
<path d="M640.0,360.8 Q616.0,342.2 640.0,323.6" fill="none" stroke="#F58518" stroke-width="1.6" opacity="0.9"/>
<circle cx="239.7" cy="243.0" r="15.0" fill="#eef4fb" stroke="#4477AA" stroke-width="1.6"/>
<text x="239.7" y="247.0" text-anchor="middle" font-family="ui-monospace, Consolas, 'Courier New', monospace" font-size="11" fill="#1a1a1a">a</text>
<circle cx="239.7" cy="274.0" r="15.0" fill="#eef4fb" stroke="#4477AA" stroke-width="1.6"/>
<text x="239.7" y="278.0" text-anchor="middle" font-family="ui-monospace, Consolas, 'Courier New', monospace" font-size="11" fill="#1a1a1a">c</text>
<circle cx="239.7" cy="305.0" r="15.0" fill="#eef4fb" stroke="#4477AA" stroke-width="1.6"/>
<text x="239.7" y="309.0" text-anchor="middle" font-family="ui-monospace, Consolas, 'Courier New', monospace" font-size="11" fill="#1a1a1a">h</text>
<circle cx="239.7" cy="336.0" r="15.0" fill="#cce0f5" stroke="#225588" stroke-width="2.0"/>
<text x="239.7" y="340.0" text-anchor="middle" font-family="ui-monospace, Consolas, 'Courier New', monospace" font-size="11" fill="#1a1a1a">t</text>
<circle cx="239.7" cy="367.0" r="15.0" fill="#eef4fb" stroke="#4477AA" stroke-width="1.6"/>
<text x="239.7" y="371.0" text-anchor="middle" font-family="ui-monospace, Consolas, 'Courier New', monospace" font-size="11" fill="#1a1a1a">m</text>
<circle cx="640.0" cy="249.2" r="15.0" fill="#fff3e6" stroke="#F58518" stroke-width="1.6"/>
<text x="640.0" y="253.2" text-anchor="middle" font-family="ui-monospace, Consolas, 'Courier New', monospace" font-size="11" fill="#1a1a1a">h0</text>
<circle cx="640.0" cy="286.4" r="15.0" fill="#fff3e6" stroke="#F58518" stroke-width="1.6"/>
<text x="640.0" y="290.4" text-anchor="middle" font-family="ui-monospace, Consolas, 'Courier New', monospace" font-size="11" fill="#1a1a1a">h1</text>
<circle cx="640.0" cy="323.6" r="15.0" fill="#fff3e6" stroke="#F58518" stroke-width="1.6"/>
<text x="640.0" y="327.6" text-anchor="middle" font-family="ui-monospace, Consolas, 'Courier New', monospace" font-size="11" fill="#1a1a1a">h2</text>
<circle cx="640.0" cy="360.8" r="15.0" fill="#fff3e6" stroke="#F58518" stroke-width="1.6"/>
<text x="640.0" y="364.8" text-anchor="middle" font-family="ui-monospace, Consolas, 'Courier New', monospace" font-size="11" fill="#1a1a1a">h3</text>
<circle cx="951.4" cy="243.0" r="15.0" fill="#e8f6f4" stroke="#2a9d8f" stroke-width="1.6"/>
<text x="951.4" y="247.0" text-anchor="middle" font-family="ui-monospace, Consolas, 'Courier New', monospace" font-size="11" fill="#1a1a1a">a</text>
<circle cx="951.4" cy="274.0" r="15.0" fill="#e8f6f4" stroke="#2a9d8f" stroke-width="1.6"/>
<text x="951.4" y="278.0" text-anchor="middle" font-family="ui-monospace, Consolas, 'Courier New', monospace" font-size="11" fill="#1a1a1a">c</text>
<circle cx="951.4" cy="305.0" r="15.0" fill="#e8f6f4" stroke="#2a9d8f" stroke-width="1.6"/>
<text x="951.4" y="309.0" text-anchor="middle" font-family="ui-monospace, Consolas, 'Courier New', monospace" font-size="11" fill="#1a1a1a">h</text>
<circle cx="951.4" cy="336.0" r="15.0" fill="#e8f6f4" stroke="#2a9d8f" stroke-width="1.6"/>
<text x="951.4" y="340.0" text-anchor="middle" font-family="ui-monospace, Consolas, 'Courier New', monospace" font-size="11" fill="#1a1a1a">t</text>
<circle cx="951.4" cy="367.0" r="15.0" fill="#e8f6f4" stroke="#2a9d8f" stroke-width="1.6"/>
<text x="951.4" y="371.0" text-anchor="middle" font-family="ui-monospace, Consolas, 'Courier New', monospace" font-size="11" fill="#1a1a1a">m</text>
<text x="239.7" y="196" text-anchor="middle" font-size="13" fill="#4477AA">input x<tspan baseline-shift="sub" font-size="10">t</tspan></text>
<text x="640.0" y="196" text-anchor="middle" font-size="13" fill="#F58518">hidden h<tspan baseline-shift="sub" font-size="10">t</tspan></text>
<text x="951.4" y="196" text-anchor="middle" font-size="13" fill="#2a9d8f">softmax</text>
<text x="440" y="218" text-anchor="middle" font-size="13" font-weight="600"><tspan fill="#4477AA">W</tspan><tspan baseline-shift="sub" font-size="10" fill="#4477AA">xh</tspan></text>
<text x="688" y="305" text-anchor="start" font-size="13" font-weight="600"><tspan fill="#F58518">W</tspan><tspan baseline-shift="sub" font-size="10" fill="#F58518">hh</tspan></text>
<text x="796" y="218" text-anchor="middle" font-size="13" font-weight="600"><tspan fill="#2a9d8f">W</tspan><tspan baseline-shift="sub" font-size="10" fill="#2a9d8f">yh</tspan></text>
<text x="640" y="436" text-anchor="middle" font-size="13" fill="#666">h<tspan baseline-shift="sub" font-size="10">t</tspan> = tanh(<tspan fill="#4477AA">W</tspan><tspan baseline-shift="sub" font-size="10" fill="#4477AA">xh</tspan> x<tspan baseline-shift="sub" font-size="10">t</tspan> + <tspan fill="#F58518">W</tspan><tspan baseline-shift="sub" font-size="10" fill="#F58518">hh</tspan> h<tspan baseline-shift="sub" font-size="10">t-1</tspan>) · predict next char · cross-entropy loss</text>
<line x1="84" y1="470" x2="1196" y2="470" stroke="#ddd8cc" stroke-width="1"/>
<rect x="84.0" y="494.0" width="26.0" height="32.0" rx="4" fill="#ffffff" stroke="#ddd8cc" stroke-width="1"/>
<text x="97.0" y="515.8" text-anchor="middle" font-family="ui-monospace, Consolas, 'Courier New', monospace" font-size="16" fill="#4477AA">m</text>
<rect x="114.0" y="494.0" width="26.0" height="32.0" rx="4" fill="#ffffff" stroke="#ddd8cc" stroke-width="1"/>
<text x="127.0" y="515.8" text-anchor="middle" font-family="ui-monospace, Consolas, 'Courier New', monospace" font-size="16" fill="#4477AA">a</text>
<rect x="144.0" y="494.0" width="26.0" height="32.0" rx="4" fill="#ffffff" stroke="#ddd8cc" stroke-width="1"/>
<text x="157.0" y="515.8" text-anchor="middle" font-family="ui-monospace, Consolas, 'Courier New', monospace" font-size="16" fill="#4477AA">t</text>
<rect x="174.0" y="494.0" width="26.0" height="32.0" rx="4" fill="#ffffff" stroke="#ddd8cc" stroke-width="1"/>
<text x="187.0" y="515.8" text-anchor="middle" font-family="ui-monospace, Consolas, 'Courier New', monospace" font-size="16" fill="#4477AA">a</text>
<rect x="204.0" y="494.0" width="26.0" height="32.0" rx="4" fill="#ffffff" stroke="#ddd8cc" stroke-width="1"/>
<text x="217.0" y="515.8" text-anchor="middle" font-family="ui-monospace, Consolas, 'Courier New', monospace" font-size="16" fill="#4477AA">t</text>
<rect x="234.0" y="494.0" width="26.0" height="32.0" rx="4" fill="#ffffff" stroke="#ddd8cc" stroke-width="1"/>
<text x="247.0" y="515.8" text-anchor="middle" font-family="ui-monospace, Consolas, 'Courier New', monospace" font-size="16" fill="#4477AA">e</text>
<rect x="264.0" y="494.0" width="26.0" height="32.0" rx="4" fill="#ffffff" stroke="#ddd8cc" stroke-width="1"/>
<text x="277.0" y="515.8" text-anchor="middle" font-family="ui-monospace, Consolas, 'Courier New', monospace" font-size="16" fill="#4477AA">a</text>
<rect x="294.0" y="494.0" width="26.0" height="32.0" rx="4" fill="#ffffff" stroke="#ddd8cc" stroke-width="1"/>
<text x="307.0" y="515.8" text-anchor="middle" font-family="ui-monospace, Consolas, 'Courier New', monospace" font-size="16" fill="#4477AA">t</text>
<rect x="324.0" y="494.0" width="26.0" height="32.0" rx="4" fill="#ffffff" stroke="#ddd8cc" stroke-width="1"/>
<text x="337.0" y="515.8" text-anchor="middle" font-family="ui-monospace, Consolas, 'Courier New', monospace" font-size="16" fill="#4477AA">e</text>
<rect x="354.0" y="494.0" width="26.0" height="32.0" rx="4" fill="#ffffff" stroke="#ddd8cc" stroke-width="1"/>
<text x="367.0" y="515.8" text-anchor="middle" font-family="ui-monospace, Consolas, 'Courier New', monospace" font-size="16" fill="#4477AA">m</text>
<rect x="384.0" y="494.0" width="26.0" height="32.0" rx="4" fill="#ffffff" stroke="#ddd8cc" stroke-width="1"/>
<text x="397.0" y="515.8" text-anchor="middle" font-family="ui-monospace, Consolas, 'Courier New', monospace" font-size="16" fill="#4477AA">a</text>
<rect x="414.0" y="494.0" width="26.0" height="32.0" rx="4" fill="#ffffff" stroke="#ddd8cc" stroke-width="1"/>
<text x="427.0" y="515.8" text-anchor="middle" font-family="ui-monospace, Consolas, 'Courier New', monospace" font-size="16" fill="#4477AA">t</text>
<rect x="444.0" y="494.0" width="26.0" height="32.0" rx="4" fill="#ffffff" stroke="#ddd8cc" stroke-width="1"/>
<text x="457.0" y="515.8" text-anchor="middle" font-family="ui-monospace, Consolas, 'Courier New', monospace" font-size="16" fill="#4477AA">n</text>
<rect x="474.0" y="494.0" width="26.0" height="32.0" rx="4" fill="#ffffff" stroke="#ddd8cc" stroke-width="1"/>
<text x="487.0" y="515.8" text-anchor="middle" font-family="ui-monospace, Consolas, 'Courier New', monospace" font-size="16" fill="#4477AA">e</text>
<rect x="504.0" y="494.0" width="26.0" height="32.0" rx="4" fill="#ffffff" stroke="#ddd8cc" stroke-width="1"/>
<text x="517.0" y="515.8" text-anchor="middle" font-family="ui-monospace, Consolas, 'Courier New', monospace" font-size="16" fill="#4477AA">t</text>
<rect x="534.0" y="494.0" width="26.0" height="32.0" rx="4" fill="#ffffff" stroke="#ddd8cc" stroke-width="1"/>
<text x="547.0" y="515.8" text-anchor="middle" font-family="ui-monospace, Consolas, 'Courier New', monospace" font-size="16" fill="#4477AA">p</text>
<rect x="564.0" y="494.0" width="26.0" height="32.0" rx="4" fill="#ffffff" stroke="#ddd8cc" stroke-width="1"/>
<text x="577.0" y="515.8" text-anchor="middle" font-family="ui-monospace, Consolas, 'Courier New', monospace" font-size="16" fill="#4477AA">e</text>
<rect x="594.0" y="494.0" width="26.0" height="32.0" rx="4" fill="#ffffff" stroke="#ddd8cc" stroke-width="1"/>
<text x="607.0" y="515.8" text-anchor="middle" font-family="ui-monospace, Consolas, 'Courier New', monospace" font-size="16" fill="#4477AA">t</text>
<rect x="624.0" y="494.0" width="26.0" height="32.0" rx="4" fill="#ffffff" stroke="#ddd8cc" stroke-width="1"/>
<text x="637.0" y="515.8" text-anchor="middle" font-family="ui-monospace, Consolas, 'Courier New', monospace" font-size="16" fill="#4477AA">n</text>
<rect x="654.0" y="494.0" width="26.0" height="32.0" rx="4" fill="#ffffff" stroke="#ddd8cc" stroke-width="1"/>
<text x="667.0" y="515.8" text-anchor="middle" font-family="ui-monospace, Consolas, 'Courier New', monospace" font-size="16" fill="#4477AA">e</text>
<rect x="684.0" y="494.0" width="26.0" height="32.0" rx="4" fill="#ffffff" stroke="#ddd8cc" stroke-width="1"/>
<text x="697.0" y="515.8" text-anchor="middle" font-family="ui-monospace, Consolas, 'Courier New', monospace" font-size="16" fill="#4477AA">t</text>
<rect x="714.0" y="494.0" width="26.0" height="32.0" rx="4" fill="#ffffff" stroke="#ddd8cc" stroke-width="1"/>
<text x="727.0" y="515.8" text-anchor="middle" font-family="ui-monospace, Consolas, 'Courier New', monospace" font-size="16" fill="#4477AA">e</text>
<rect x="744.0" y="494.0" width="26.0" height="32.0" rx="4" fill="#ffffff" stroke="#ddd8cc" stroke-width="1"/>
<text x="757.0" y="515.8" text-anchor="middle" font-family="ui-monospace, Consolas, 'Courier New', monospace" font-size="16" fill="#4477AA">a</text>
<rect x="774.0" y="494.0" width="26.0" height="32.0" rx="4" fill="#ffffff" stroke="#ddd8cc" stroke-width="1"/>
<text x="787.0" y="515.8" text-anchor="middle" font-family="ui-monospace, Consolas, 'Courier New', monospace" font-size="16" fill="#4477AA">t</text>
<rect x="84" y="550" width="1112" height="158" rx="10" fill="#f5f5f5" stroke="#ccc8bc" stroke-width="1.2"/>
<text x="100" y="580" font-size="15" font-weight="600" fill="#F58518">BPTT window (T = 8)</text>
<rect x="100" y="600" width="32" height="38" rx="5" fill="#ffffff" stroke="#4477AA" stroke-width="1.5"/>
<text x="116.0" y="627" text-anchor="middle" font-family="ui-monospace, Consolas, 'Courier New', monospace" font-size="17" fill="#4477AA">t</text>
<line x1="116.0" y1="638.0" x2="116.0" y2="656.0" stroke="#555" stroke-width="1.5" marker-end="url(#arrowhead)"/>
<rect x="138" y="600" width="32" height="38" rx="5" fill="#ffffff" stroke="#4477AA" stroke-width="1.5"/>
<text x="154.0" y="627" text-anchor="middle" font-family="ui-monospace, Consolas, 'Courier New', monospace" font-size="17" fill="#4477AA">e</text>
<line x1="154.0" y1="638.0" x2="154.0" y2="656.0" stroke="#555" stroke-width="1.5" marker-end="url(#arrowhead)"/>
<rect x="176" y="600" width="32" height="38" rx="5" fill="#ffffff" stroke="#4477AA" stroke-width="1.5"/>
<text x="192.0" y="627" text-anchor="middle" font-family="ui-monospace, Consolas, 'Courier New', monospace" font-size="17" fill="#4477AA">a</text>
<line x1="192.0" y1="638.0" x2="192.0" y2="656.0" stroke="#555" stroke-width="1.5" marker-end="url(#arrowhead)"/>
<rect x="214" y="600" width="32" height="38" rx="5" fill="#ffffff" stroke="#4477AA" stroke-width="1.5"/>
<text x="230.0" y="627" text-anchor="middle" font-family="ui-monospace, Consolas, 'Courier New', monospace" font-size="17" fill="#4477AA">t</text>
<line x1="230.0" y1="638.0" x2="230.0" y2="656.0" stroke="#555" stroke-width="1.5" marker-end="url(#arrowhead)"/>
<rect x="252" y="600" width="32" height="38" rx="5" fill="#ffffff" stroke="#4477AA" stroke-width="1.5"/>
<text x="268.0" y="627" text-anchor="middle" font-family="ui-monospace, Consolas, 'Courier New', monospace" font-size="17" fill="#4477AA">e</text>
<line x1="268.0" y1="638.0" x2="268.0" y2="656.0" stroke="#555" stroke-width="1.5" marker-end="url(#arrowhead)"/>
<rect x="290" y="600" width="32" height="38" rx="5" fill="#ffffff" stroke="#4477AA" stroke-width="1.5"/>
<text x="306.0" y="627" text-anchor="middle" font-family="ui-monospace, Consolas, 'Courier New', monospace" font-size="17" fill="#4477AA">m</text>
<line x1="306.0" y1="638.0" x2="306.0" y2="656.0" stroke="#555" stroke-width="1.5" marker-end="url(#arrowhead)"/>
<rect x="328" y="600" width="32" height="38" rx="5" fill="#ffffff" stroke="#4477AA" stroke-width="1.5"/>
<text x="344.0" y="627" text-anchor="middle" font-family="ui-monospace, Consolas, 'Courier New', monospace" font-size="17" fill="#4477AA">a</text>
<line x1="344.0" y1="638.0" x2="344.0" y2="656.0" stroke="#555" stroke-width="1.5" marker-end="url(#arrowhead)"/>
<rect x="366" y="600" width="32" height="38" rx="5" fill="#ffffff" stroke="#4477AA" stroke-width="1.5"/>
<text x="382.0" y="627" text-anchor="middle" font-family="ui-monospace, Consolas, 'Courier New', monospace" font-size="17" fill="#4477AA">t</text>
<line x1="382.0" y1="638.0" x2="382.0" y2="656.0" stroke="#555" stroke-width="1.5" marker-end="url(#arrowhead)"/>
<rect x="100" y="666" width="32" height="38" rx="5" fill="#ffffff" stroke="#2a9d8f" stroke-width="1.5"/>
<text x="116.0" y="693" text-anchor="middle" font-family="ui-monospace, Consolas, 'Courier New', monospace" font-size="17" fill="#2a9d8f">e</text>
<rect x="138" y="666" width="32" height="38" rx="5" fill="#ffffff" stroke="#2a9d8f" stroke-width="1.5"/>
<text x="154.0" y="693" text-anchor="middle" font-family="ui-monospace, Consolas, 'Courier New', monospace" font-size="17" fill="#2a9d8f">a</text>
<rect x="176" y="666" width="32" height="38" rx="5" fill="#ffffff" stroke="#2a9d8f" stroke-width="1.5"/>
<text x="192.0" y="693" text-anchor="middle" font-family="ui-monospace, Consolas, 'Courier New', monospace" font-size="17" fill="#2a9d8f">t</text>
<rect x="214" y="666" width="32" height="38" rx="5" fill="#ffffff" stroke="#2a9d8f" stroke-width="1.5"/>
<text x="230.0" y="693" text-anchor="middle" font-family="ui-monospace, Consolas, 'Courier New', monospace" font-size="17" fill="#2a9d8f">e</text>
<rect x="252" y="666" width="32" height="38" rx="5" fill="#ffffff" stroke="#2a9d8f" stroke-width="1.5"/>
<text x="268.0" y="693" text-anchor="middle" font-family="ui-monospace, Consolas, 'Courier New', monospace" font-size="17" fill="#2a9d8f">m</text>
<rect x="290" y="666" width="32" height="38" rx="5" fill="#ffffff" stroke="#2a9d8f" stroke-width="1.5"/>
<text x="306.0" y="693" text-anchor="middle" font-family="ui-monospace, Consolas, 'Courier New', monospace" font-size="17" fill="#2a9d8f">a</text>
<rect x="328" y="666" width="32" height="38" rx="5" fill="#ffffff" stroke="#2a9d8f" stroke-width="1.5"/>
<text x="344.0" y="693" text-anchor="middle" font-family="ui-monospace, Consolas, 'Courier New', monospace" font-size="17" fill="#2a9d8f">t</text>
<rect x="366" y="666" width="32" height="38" rx="5" fill="#ffffff" stroke="#2a9d8f" stroke-width="1.5"/>
<text x="382.0" y="693" text-anchor="middle" font-family="ui-monospace, Consolas, 'Courier New', monospace" font-size="17" fill="#2a9d8f">…</text>
</svg>